<svg xmlns="http://www.w3.org/2000/svg" width="23" height="23" viewBox="0 0 23 23">
  <g id="FB" transform="translate(-271.731 -48.731)">
    <rect id="Rectangle_6747" data-name="Rectangle 6747" width="23" height="23" rx="2" fill="#ffffff" transform="translate(271.731 48.731)"/>
    <path id="Path_28433" data-name="Path 28433" d="M62.284,9H60.138c-2.412,0-3.97,1.7-3.97,4.323v1.993H54.009a.321.321,0,0,0-.129.027.336.336,0,0,0-.11.078.36.36,0,0,0-.073.116.378.378,0,0,0-.026.137v2.888a.369.369,0,0,0,.1.253.328.328,0,0,0,.239.1h2.158V26.2a.377.377,0,0,0,.026.137.36.36,0,0,0,.073.116.338.338,0,0,0,.11.078.32.32,0,0,0,.129.027h2.816a.321.321,0,0,0,.129-.027.338.338,0,0,0,.11-.078.361.361,0,0,0,.073-.116.377.377,0,0,0,.026-.137V18.92h2.524a.321.321,0,0,0,.129-.027.337.337,0,0,0,.11-.078A.361.361,0,0,0,62.5,18.7a.376.376,0,0,0,.026-.137V15.674a.369.369,0,0,0-.1-.253.328.328,0,0,0-.239-.1H59.659v-1.69c0-.812.182-1.224,1.179-1.224h1.446a.328.328,0,0,0,.239-.1.37.37,0,0,0,.1-.253V9.362a.37.37,0,0,0-.1-.253A.328.328,0,0,0,62.284,9Z" transform="translate(225.219 45.166)" fill="#000000"/>
  </g>
</svg>
