<svg xmlns="http://www.w3.org/2000/svg" width="19" height="19" viewBox="0 0 19 19">
  <g id="Breadcrumbs-how-it-works" transform="translate(-6.25 -6.25)">
    <path id="Path_28948" data-name="Path 28948" d="M23.214,8.964h-.679V7.607h.679a.679.679,0,0,0,0-1.357H20.5a.679.679,0,1,0,0,1.357h.679V8.964h-4.75V7.607h.679a.679.679,0,1,0,0-1.357H14.393a.679.679,0,1,0,0,1.357h.679V8.964h-4.75V7.607H11A.679.679,0,1,0,11,6.25H8.286a.679.679,0,1,0,0,1.357h.679V8.964H8.286A2.036,2.036,0,0,0,6.25,11v8.143a2.036,2.036,0,0,0,2.036,2.036h6.786v2.714H13.036a.679.679,0,1,0,0,1.357h5.429a.679.679,0,0,0,0-1.357H16.429V21.179h6.786a2.036,2.036,0,0,0,2.036-2.036V11A2.036,2.036,0,0,0,23.214,8.964Zm.679,10.179a.678.678,0,0,1-.679.679H8.286a.678.678,0,0,1-.679-.679V11a.678.678,0,0,1,.679-.679H23.214a.678.678,0,0,1,.679.679Z"/>
  </g>
</svg>
